<svg xmlns="http://www.w3.org/2000/svg" xmlns:xlink="http://www.w3.org/1999/xlink" width="500" zoomAndPan="magnify" viewBox="0 0 375 374.999991" height="500" preserveAspectRatio="xMidYMid meet" version="1.0"><defs><g/><clipPath id="4bcd4f09e2"><path d="M 61.5 27.152344 L 154.5 27.152344 L 154.5 347.847656 L 61.5 347.847656 Z M 61.5 27.152344 " clip-rule="nonzero"/></clipPath></defs><rect x="-37.5" width="450" fill="#ffffff" y="-37.499999" height="449.999989" fill-opacity="1"/><rect x="-37.5" width="450" fill="#ffffff" y="-37.499999" height="449.999989" fill-opacity="1"/><g fill="#1a73e8" fill-opacity="1"><g transform="translate(154.276958, 255.693375)"><g><path d="M 79.609375 2.421875 C 59.398438 2.421875 43.671875 -3.164062 32.421875 -14.34375 C 21.179688 -25.519531 15.5625 -41.484375 15.5625 -62.234375 L 15.5625 -141.4375 L 48.296875 -141.4375 L 48.296875 -63.4375 C 48.296875 -38.113281 58.800781 -25.453125 79.8125 -25.453125 C 90.050781 -25.453125 97.863281 -28.515625 103.25 -34.640625 C 108.632812 -40.773438 111.328125 -50.375 111.328125 -63.4375 L 111.328125 -141.4375 L 143.65625 -141.4375 L 143.65625 -62.234375 C 143.65625 -41.484375 138.03125 -25.519531 126.78125 -14.34375 C 115.53125 -3.164062 99.804688 2.421875 79.609375 2.421875 Z M 79.609375 2.421875 "/></g></g></g><path fill="#ff4500" d="M 97.558594 187.472656 C 104.496094 182.195312 109.214844 177.203125 111.714844 172.484375 C 114.90625 166.238281 116.503906 158.8125 116.503906 150.210938 L 116.503906 75.476562 C 116.503906 67.566406 118.789062 61.082031 123.371094 56.015625 C 127.949219 50.949219 133.640625 48.070312 140.441406 47.375 C 144.742188 46.957031 147.585938 46.125 148.976562 44.878906 C 150.78125 43.210938 151.683594 41.132812 151.683594 38.632812 C 151.683594 36 150.78125 33.882812 148.976562 32.285156 C 147.167969 30.691406 144.535156 29.886719 141.066406 29.886719 C 130.097656 29.886719 120.941406 33.359375 113.585938 40.296875 C 103.730469 49.875 98.804688 61.53125 98.804688 75.269531 L 98.804688 150.210938 C 98.804688 157.839844 96.515625 164.261719 91.9375 169.464844 C 87.359375 174.671875 81.53125 177.546875 74.453125 178.105469 C 70.566406 178.519531 67.855469 179.492188 66.332031 181.019531 C 64.804688 182.546875 64.042969 184.695312 64.042969 187.472656 C 64.042969 190.105469 64.804688 192.1875 66.332031 193.71875 C 67.855469 195.246094 70.566406 196.214844 74.453125 196.632812 C 81.667969 197.183594 87.53125 200.066406 92.042969 205.269531 C 96.550781 210.472656 98.804688 216.890625 98.804688 224.527344 L 98.804688 299.46875 C 98.804688 312.507812 102.972656 323.371094 111.296875 332.046875 C 119.625 340.714844 129.617188 345.054688 141.273438 345.054688 C 144.605469 345.054688 147.167969 344.222656 148.976562 342.554688 C 150.78125 340.890625 151.683594 338.8125 151.683594 336.3125 C 151.683594 333.8125 150.78125 331.730469 148.976562 330.066406 C 147.730469 328.675781 144.878906 327.777344 140.441406 327.363281 C 133.5 326.667969 127.773438 323.75 123.265625 318.621094 C 118.753906 313.484375 116.503906 307.097656 116.503906 299.46875 L 116.503906 224.527344 C 116.503906 215.78125 115.113281 208.738281 112.339844 203.398438 C 109.5625 198.054688 104.636719 192.746094 97.558594 187.472656 " fill-opacity="1" fill-rule="nonzero"/><g clip-path="url(#4bcd4f09e2)"><path fill="#ff4500" d="M 141.273438 342.511719 C 130.238281 342.511719 121.03125 338.511719 113.132812 330.285156 C 105.3125 322.140625 101.347656 311.769531 101.347656 299.46875 L 101.347656 224.527344 C 101.347656 216.300781 98.863281 209.261719 93.960938 203.605469 C 89.015625 197.898438 82.519531 194.699219 74.644531 194.097656 C 70.640625 193.667969 68.886719 192.675781 68.132812 191.917969 C 67.089844 190.878906 66.585938 189.425781 66.585938 187.472656 C 66.585938 185.378906 67.089844 183.855469 68.132812 182.820312 C 68.886719 182.0625 70.636719 181.070312 74.722656 180.636719 C 82.378906 180.03125 88.835938 176.835938 93.847656 171.148438 C 98.824219 165.488281 101.347656 158.445312 101.347656 150.210938 L 101.347656 75.269531 C 101.347656 62.304688 106.066406 51.152344 115.363281 42.121094 C 122.257812 35.609375 130.679688 32.429688 141.066406 32.429688 C 143.878906 32.429688 145.972656 33.023438 147.292969 34.191406 C 148.550781 35.304688 149.140625 36.71875 149.140625 38.632812 C 149.140625 40.429688 148.539062 41.820312 147.246094 43.007812 C 146.839844 43.382812 145.269531 44.351562 140.195312 44.84375 C 132.769531 45.605469 126.480469 48.789062 121.484375 54.308594 C 116.492188 59.835938 113.960938 66.957031 113.960938 75.476562 L 113.960938 150.210938 C 113.960938 158.367188 112.441406 165.472656 109.449219 171.324219 C 107.15625 175.65625 102.632812 180.421875 96.019531 185.445312 L 93.328125 187.492188 L 96.039062 189.511719 C 102.769531 194.527344 107.496094 199.589844 110.082031 204.570312 C 112.652344 209.519531 113.960938 216.234375 113.960938 224.527344 L 113.960938 299.46875 C 113.960938 307.699219 116.445312 314.707031 121.359375 320.296875 C 126.285156 325.902344 132.617188 329.132812 140.1875 329.890625 C 145.46875 330.386719 146.804688 331.453125 147.085938 331.769531 L 147.246094 331.933594 C 148.539062 333.125 149.140625 334.515625 149.140625 336.3125 C 149.140625 338.109375 148.539062 339.5 147.246094 340.6875 C 145.941406 341.898438 143.929688 342.511719 141.273438 342.511719 Z M 141.066406 27.34375 C 129.484375 27.34375 119.648438 31.078125 111.839844 38.445312 C 101.496094 48.5 96.261719 60.878906 96.261719 75.269531 L 96.261719 150.210938 C 96.261719 157.269531 94.222656 163.015625 90.027344 167.785156 C 85.867188 172.515625 80.707031 175.058594 74.25 175.570312 C 69.652344 176.0625 66.5 177.253906 64.53125 179.222656 C 62.519531 181.230469 61.5 184.003906 61.5 187.472656 C 61.5 190.792969 62.519531 193.5 64.535156 195.515625 C 66.503906 197.480469 69.65625 198.679688 74.183594 199.160156 C 80.839844 199.671875 86.027344 202.210938 90.121094 206.933594 C 94.253906 211.707031 96.261719 217.464844 96.261719 224.527344 L 96.261719 299.46875 C 96.261719 313.128906 100.703125 324.683594 109.460938 333.804688 C 118.25 342.957031 128.953125 347.597656 141.273438 347.597656 C 145.25 347.597656 148.421875 346.53125 150.699219 344.425781 C 153.039062 342.265625 154.226562 339.535156 154.226562 336.3125 C 154.226562 333.125 153.070312 330.421875 150.78125 328.273438 C 149.03125 326.40625 145.8125 325.3125 140.679688 324.832031 C 134.359375 324.195312 129.285156 321.617188 125.175781 316.9375 C 121.050781 312.242188 119.046875 306.523438 119.046875 299.46875 L 119.046875 224.527344 C 119.046875 215.410156 117.546875 207.90625 114.59375 202.226562 C 112.011719 197.253906 107.675781 192.296875 101.691406 187.457031 C 107.570312 182.664062 111.597656 178.136719 113.960938 173.671875 C 117.339844 167.0625 119.046875 159.179688 119.046875 150.210938 L 119.046875 75.476562 C 119.046875 68.15625 121.074219 62.34375 125.253906 57.722656 C 129.441406 53.097656 134.488281 50.539062 140.699219 49.90625 C 145.65625 49.425781 148.828125 48.425781 150.675781 46.765625 C 153.039062 44.585938 154.226562 41.855469 154.226562 38.632812 C 154.226562 35.25 153.023438 32.472656 150.660156 30.378906 C 148.378906 28.367188 145.152344 27.34375 141.066406 27.34375 " fill-opacity="1" fill-rule="nonzero"/></g></svg>