<svg xmlns="http://www.w3.org/2000/svg" xmlns:xlink="http://www.w3.org/1999/xlink" width="500" zoomAndPan="magnify" viewBox="0 0 375 374.999991" height="500" preserveAspectRatio="xMidYMid meet" version="1.0"><defs><g/><clipPath id="dfb8a7da62"><path d="M 309.949219 139.945312 L 337.488281 139.945312 L 337.488281 235.042969 L 309.949219 235.042969 Z M 309.949219 139.945312 " clip-rule="nonzero"/></clipPath><clipPath id="8ea3d2ceed"><path d="M 37.394531 139.945312 L 65 139.945312 L 65 235.042969 L 37.394531 235.042969 Z M 37.394531 139.945312 " clip-rule="nonzero"/></clipPath></defs><rect x="-37.5" width="450" fill="#ffffff" y="-37.499999" height="449.999989" fill-opacity="1"/><rect x="-37.5" width="450" fill="#ffffff" y="-37.499999" height="449.999989" fill-opacity="1"/><g fill="#1a73e8" fill-opacity="1"><g transform="translate(70.945313, 207.749986)"><g><path d="M 23.640625 0.71875 C 17.640625 0.71875 12.96875 -0.9375 9.625 -4.25 C 6.289062 -7.570312 4.625 -12.316406 4.625 -18.484375 L 4.625 -42 L 14.34375 -42 L 14.34375 -18.84375 C 14.34375 -11.320312 17.460938 -7.5625 23.703125 -7.5625 C 26.742188 -7.5625 29.0625 -8.46875 30.65625 -10.28125 C 32.257812 -12.101562 33.0625 -14.957031 33.0625 -18.84375 L 33.0625 -42 L 42.65625 -42 L 42.65625 -18.484375 C 42.65625 -12.316406 40.984375 -7.570312 37.640625 -4.25 C 34.304688 -0.9375 29.640625 0.71875 23.640625 0.71875 Z M 23.640625 0.71875 "/></g></g></g><g fill="#ff4500" fill-opacity="1"><g transform="translate(118.230466, 207.749986)"><g><path d="M 3.125 -20.640625 L 20.09375 -20.640625 L 20.09375 -13.140625 L 3.125 -13.140625 Z M 3.125 -20.640625 "/></g></g></g><g fill="#1a73e8" fill-opacity="1"><g transform="translate(141.398433, 207.749986)"><g><path d="M 25.078125 0.71875 C 20.796875 0.71875 16.925781 -0.207031 13.46875 -2.0625 C 10.007812 -3.925781 7.289062 -6.507812 5.3125 -9.8125 C 3.332031 -13.113281 2.34375 -16.84375 2.34375 -21 C 2.34375 -25.15625 3.332031 -28.882812 5.3125 -32.1875 C 7.289062 -35.488281 10.007812 -38.066406 13.46875 -39.921875 C 16.925781 -41.785156 20.816406 -42.71875 25.140625 -42.71875 C 28.773438 -42.71875 32.0625 -42.078125 35 -40.796875 C 37.945312 -39.515625 40.421875 -37.675781 42.421875 -35.28125 L 36.1875 -29.515625 C 33.34375 -32.796875 29.820312 -34.4375 25.625 -34.4375 C 23.019531 -34.4375 20.695312 -33.863281 18.65625 -32.71875 C 16.613281 -31.582031 15.023438 -29.992188 13.890625 -27.953125 C 12.753906 -25.921875 12.1875 -23.601562 12.1875 -21 C 12.1875 -18.394531 12.753906 -16.070312 13.890625 -14.03125 C 15.023438 -12 16.613281 -10.410156 18.65625 -9.265625 C 20.695312 -8.128906 23.019531 -7.5625 25.625 -7.5625 C 29.820312 -7.5625 33.34375 -9.222656 36.1875 -12.546875 L 42.421875 -6.78125 C 40.421875 -4.34375 37.941406 -2.484375 34.984375 -1.203125 C 32.023438 0.078125 28.722656 0.71875 25.078125 0.71875 Z M 25.078125 0.71875 "/></g></g></g><g fill="#1a73e8" fill-opacity="1"><g transform="translate(185.378384, 207.749986)"><g><path d="M 19.6875 0.484375 C 16.28125 0.484375 13.226562 -0.222656 10.53125 -1.640625 C 7.832031 -3.066406 5.722656 -5.039062 4.203125 -7.5625 C 2.679688 -10.082031 1.921875 -12.941406 1.921875 -16.140625 C 1.921875 -19.335938 2.679688 -22.195312 4.203125 -24.71875 C 5.722656 -27.238281 7.832031 -29.207031 10.53125 -30.625 C 13.226562 -32.050781 16.28125 -32.765625 19.6875 -32.765625 C 23.082031 -32.765625 26.117188 -32.050781 28.796875 -30.625 C 31.472656 -29.207031 33.570312 -27.238281 35.09375 -24.71875 C 36.613281 -22.195312 37.375 -19.335938 37.375 -16.140625 C 37.375 -12.941406 36.613281 -10.082031 35.09375 -7.5625 C 33.570312 -5.039062 31.472656 -3.066406 28.796875 -1.640625 C 26.117188 -0.222656 23.082031 0.484375 19.6875 0.484375 Z M 19.6875 -7.203125 C 22.082031 -7.203125 24.050781 -8.007812 25.59375 -9.625 C 27.132812 -11.25 27.90625 -13.421875 27.90625 -16.140625 C 27.90625 -18.859375 27.132812 -21.023438 25.59375 -22.640625 C 24.050781 -24.265625 22.082031 -25.078125 19.6875 -25.078125 C 17.28125 -25.078125 15.296875 -24.265625 13.734375 -22.640625 C 12.179688 -21.023438 11.40625 -18.859375 11.40625 -16.140625 C 11.40625 -13.421875 12.179688 -11.25 13.734375 -9.625 C 15.296875 -8.007812 17.28125 -7.203125 19.6875 -7.203125 Z M 19.6875 -7.203125 "/></g></g></g><g fill="#1a73e8" fill-opacity="1"><g transform="translate(224.678342, 207.749986)"><g><path d="M 37.203125 -44.515625 L 37.203125 0 L 28.265625 0 L 28.265625 -3.71875 C 25.941406 -0.914062 22.582031 0.484375 18.1875 0.484375 C 15.144531 0.484375 12.390625 -0.191406 9.921875 -1.546875 C 7.460938 -2.910156 5.535156 -4.851562 4.140625 -7.375 C 2.742188 -9.894531 2.046875 -12.816406 2.046875 -16.140625 C 2.046875 -19.460938 2.742188 -22.382812 4.140625 -24.90625 C 5.535156 -27.425781 7.460938 -29.363281 9.921875 -30.71875 C 12.390625 -32.082031 15.144531 -32.765625 18.1875 -32.765625 C 22.300781 -32.765625 25.519531 -31.460938 27.84375 -28.859375 L 27.84375 -44.515625 Z M 19.796875 -7.203125 C 22.160156 -7.203125 24.117188 -8.007812 25.671875 -9.625 C 27.234375 -11.25 28.015625 -13.421875 28.015625 -16.140625 C 28.015625 -18.859375 27.234375 -21.023438 25.671875 -22.640625 C 24.117188 -24.265625 22.160156 -25.078125 19.796875 -25.078125 C 17.398438 -25.078125 15.421875 -24.265625 13.859375 -22.640625 C 12.296875 -21.023438 11.515625 -18.859375 11.515625 -16.140625 C 11.515625 -13.421875 12.296875 -11.25 13.859375 -9.625 C 15.421875 -8.007812 17.398438 -7.203125 19.796875 -7.203125 Z M 19.796875 -7.203125 "/></g></g></g><g fill="#1a73e8" fill-opacity="1"><g transform="translate(266.198306, 207.749986)"><g><path d="M 35.9375 -16.015625 C 35.9375 -15.898438 35.878906 -15.0625 35.765625 -13.5 L 11.34375 -13.5 C 11.78125 -11.5 12.816406 -9.914062 14.453125 -8.75 C 16.097656 -7.59375 18.140625 -7.015625 20.578125 -7.015625 C 22.253906 -7.015625 23.742188 -7.265625 25.046875 -7.765625 C 26.347656 -8.265625 27.5625 -9.054688 28.6875 -10.140625 L 33.65625 -4.734375 C 30.613281 -1.253906 26.175781 0.484375 20.34375 0.484375 C 16.695312 0.484375 13.472656 -0.222656 10.671875 -1.640625 C 7.878906 -3.066406 5.722656 -5.039062 4.203125 -7.5625 C 2.679688 -10.082031 1.921875 -12.941406 1.921875 -16.140625 C 1.921875 -19.296875 2.671875 -22.144531 4.171875 -24.6875 C 5.671875 -27.226562 7.726562 -29.207031 10.34375 -30.625 C 12.96875 -32.050781 15.898438 -32.765625 19.140625 -32.765625 C 22.296875 -32.765625 25.15625 -32.082031 27.71875 -30.71875 C 30.28125 -29.363281 32.289062 -27.414062 33.75 -24.875 C 35.207031 -22.332031 35.9375 -19.378906 35.9375 -16.015625 Z M 19.203125 -25.6875 C 17.078125 -25.6875 15.296875 -25.082031 13.859375 -23.875 C 12.421875 -22.675781 11.539062 -21.035156 11.21875 -18.953125 L 27.125 -18.953125 C 26.800781 -20.992188 25.914062 -22.625 24.46875 -23.84375 C 23.03125 -25.070312 21.273438 -25.6875 19.203125 -25.6875 Z M 19.203125 -25.6875 "/></g></g></g><path stroke-linecap="butt" transform="matrix(0.75, 0, 0, 0.75, 231.507383, 215.999986)" fill="none" stroke-linejoin="miter" d="M 0.000572803 5.000019 L 40.182867 5.000019 " stroke="#ff4500" stroke-width="10" stroke-opacity="1" stroke-miterlimit="4"/><path fill="#ff4500" d="M 326.785156 187.488281 C 324.726562 185.921875 323.324219 184.4375 322.582031 183.039062 C 321.632812 181.183594 321.160156 178.980469 321.160156 176.425781 L 321.160156 154.238281 C 321.160156 151.890625 320.480469 149.964844 319.121094 148.460938 C 317.761719 146.957031 316.074219 146.101562 314.054688 145.898438 C 312.777344 145.773438 311.933594 145.527344 311.519531 145.15625 C 310.984375 144.660156 310.71875 144.042969 310.71875 143.300781 C 310.71875 142.519531 310.984375 141.890625 311.519531 141.417969 C 312.058594 140.945312 312.839844 140.707031 313.867188 140.707031 C 317.125 140.707031 319.84375 141.738281 322.027344 143.796875 C 324.953125 146.640625 326.414062 150.097656 326.414062 154.179688 L 326.414062 176.425781 C 326.414062 178.691406 327.09375 180.597656 328.453125 182.140625 C 329.8125 183.6875 331.542969 184.542969 333.644531 184.707031 C 334.796875 184.828125 335.601562 185.117188 336.054688 185.570312 C 336.507812 186.023438 336.734375 186.664062 336.734375 187.488281 C 336.734375 188.269531 336.507812 188.886719 336.054688 189.339844 C 335.601562 189.792969 334.796875 190.082031 333.644531 190.207031 C 331.5 190.371094 329.761719 191.226562 328.421875 192.769531 C 327.082031 194.316406 326.414062 196.222656 326.414062 198.488281 L 326.414062 220.734375 C 326.414062 224.605469 325.175781 227.832031 322.707031 230.40625 C 320.234375 232.980469 317.265625 234.269531 313.808594 234.269531 C 312.816406 234.269531 312.058594 234.023438 311.519531 233.527344 C 310.984375 233.03125 310.71875 232.414062 310.71875 231.671875 C 310.71875 230.929688 310.984375 230.3125 311.519531 229.820312 C 311.890625 229.40625 312.734375 229.140625 314.054688 229.015625 C 316.113281 228.808594 317.8125 227.945312 319.152344 226.421875 C 320.492188 224.894531 321.160156 223 321.160156 220.734375 L 321.160156 198.488281 C 321.160156 195.890625 321.574219 193.800781 322.398438 192.214844 C 323.222656 190.628906 324.683594 189.054688 326.785156 187.488281 " fill-opacity="1" fill-rule="nonzero"/><g clip-path="url(#dfb8a7da62)"><path fill="#ff4500" d="M 313.808594 233.511719 C 317.082031 233.511719 319.816406 232.324219 322.160156 229.882812 C 324.480469 227.464844 325.660156 224.386719 325.660156 220.734375 L 325.660156 198.488281 C 325.660156 196.046875 326.398438 193.957031 327.851562 192.277344 C 329.320312 190.582031 331.25 189.632812 333.585938 189.453125 C 334.773438 189.328125 335.296875 189.03125 335.519531 188.808594 C 335.828125 188.5 335.980469 188.066406 335.980469 187.488281 C 335.980469 186.867188 335.828125 186.414062 335.519531 186.105469 C 335.296875 185.882812 334.777344 185.585938 333.5625 185.457031 C 331.289062 185.277344 329.375 184.328125 327.886719 182.640625 C 326.410156 180.960938 325.660156 178.871094 325.660156 176.425781 L 325.660156 154.179688 C 325.660156 150.328125 324.257812 147.019531 321.5 144.335938 C 319.453125 142.402344 316.953125 141.460938 313.867188 141.460938 C 313.035156 141.460938 312.410156 141.636719 312.019531 141.984375 C 311.644531 142.3125 311.472656 142.734375 311.472656 143.300781 C 311.472656 143.835938 311.648438 144.246094 312.03125 144.601562 C 312.15625 144.710938 312.621094 145 314.125 145.144531 C 316.332031 145.371094 318.199219 146.316406 319.679688 147.957031 C 321.164062 149.597656 321.914062 151.710938 321.914062 154.238281 L 321.914062 176.425781 C 321.914062 178.847656 322.367188 180.957031 323.253906 182.695312 C 323.933594 183.980469 325.277344 185.394531 327.242188 186.886719 L 328.039062 187.492188 L 327.234375 188.09375 C 325.238281 189.582031 323.835938 191.085938 323.066406 192.5625 C 322.304688 194.03125 321.914062 196.027344 321.914062 198.488281 L 321.914062 220.734375 C 321.914062 223.179688 321.175781 225.257812 319.71875 226.917969 C 318.257812 228.582031 316.375 229.542969 314.128906 229.765625 C 312.5625 229.914062 312.164062 230.230469 312.082031 230.324219 L 312.03125 230.375 C 311.648438 230.726562 311.472656 231.140625 311.472656 231.671875 C 311.472656 232.207031 311.648438 232.621094 312.03125 232.972656 C 312.421875 233.332031 313.019531 233.511719 313.808594 233.511719 Z M 313.867188 139.949219 C 317.308594 139.949219 320.226562 141.058594 322.542969 143.246094 C 325.617188 146.230469 327.167969 149.90625 327.167969 154.179688 L 327.167969 176.425781 C 327.167969 178.519531 327.773438 180.226562 329.019531 181.644531 C 330.253906 183.046875 331.785156 183.800781 333.703125 183.953125 C 335.070312 184.101562 336.003906 184.453125 336.589844 185.039062 C 337.1875 185.632812 337.488281 186.457031 337.488281 187.488281 C 337.488281 188.472656 337.1875 189.277344 336.585938 189.875 C 336.003906 190.457031 335.066406 190.8125 333.722656 190.957031 C 331.75 191.109375 330.207031 191.863281 328.992188 193.265625 C 327.765625 194.679688 327.167969 196.390625 327.167969 198.488281 L 327.167969 220.734375 C 327.167969 224.789062 325.851562 228.222656 323.25 230.929688 C 320.640625 233.644531 317.464844 235.023438 313.808594 235.023438 C 312.625 235.023438 311.683594 234.707031 311.007812 234.082031 C 310.3125 233.441406 309.960938 232.628906 309.960938 231.671875 C 309.960938 230.726562 310.304688 229.925781 310.984375 229.285156 C 311.503906 228.734375 312.460938 228.40625 313.984375 228.265625 C 315.859375 228.074219 317.367188 227.308594 318.585938 225.921875 C 319.808594 224.527344 320.40625 222.832031 320.40625 220.734375 L 320.40625 198.488281 C 320.40625 195.78125 320.851562 193.554688 321.726562 191.867188 C 322.492188 190.390625 323.78125 188.917969 325.558594 187.484375 C 323.8125 186.058594 322.617188 184.714844 321.914062 183.390625 C 320.910156 181.429688 320.40625 179.089844 320.40625 176.425781 L 320.40625 154.238281 C 320.40625 152.066406 319.804688 150.339844 318.5625 148.96875 C 317.320312 147.59375 315.820312 146.835938 313.976562 146.648438 C 312.507812 146.503906 311.5625 146.210938 311.015625 145.714844 C 310.3125 145.070312 309.960938 144.257812 309.960938 143.300781 C 309.960938 142.296875 310.316406 141.472656 311.019531 140.851562 C 311.695312 140.253906 312.65625 139.949219 313.867188 139.949219 " fill-opacity="1" fill-rule="nonzero"/></g><path fill="#ff4500" d="M 48.097656 187.488281 C 50.160156 185.921875 51.558594 184.4375 52.300781 183.039062 C 53.25 181.183594 53.722656 178.980469 53.722656 176.425781 L 53.722656 154.238281 C 53.722656 151.890625 54.402344 149.964844 55.761719 148.460938 C 57.121094 146.957031 58.8125 146.101562 60.832031 145.898438 C 62.105469 145.773438 62.953125 145.527344 63.363281 145.15625 C 63.898438 144.660156 64.167969 144.042969 64.167969 143.300781 C 64.167969 142.519531 63.898438 141.890625 63.363281 141.417969 C 62.828125 140.945312 62.046875 140.707031 61.015625 140.707031 C 57.761719 140.707031 55.042969 141.738281 52.859375 143.796875 C 49.933594 146.640625 48.46875 150.097656 48.46875 154.179688 L 48.46875 176.425781 C 48.46875 178.691406 47.789062 180.597656 46.433594 182.140625 C 45.070312 183.6875 43.339844 184.542969 41.242188 184.707031 C 40.085938 184.828125 39.28125 185.117188 38.828125 185.570312 C 38.375 186.023438 38.148438 186.664062 38.148438 187.488281 C 38.148438 188.269531 38.375 188.886719 38.828125 189.339844 C 39.28125 189.792969 40.085938 190.082031 41.242188 190.207031 C 43.382812 190.371094 45.125 191.226562 46.460938 192.769531 C 47.800781 194.316406 48.46875 196.222656 48.46875 198.488281 L 48.46875 220.734375 C 48.46875 224.605469 49.707031 227.832031 52.179688 230.40625 C 54.652344 232.980469 57.617188 234.269531 61.078125 234.269531 C 62.066406 234.269531 62.828125 234.023438 63.363281 233.527344 C 63.898438 233.03125 64.167969 232.414062 64.167969 231.671875 C 64.167969 230.929688 63.898438 230.3125 63.363281 229.820312 C 62.992188 229.40625 62.148438 229.140625 60.832031 229.015625 C 58.769531 228.808594 57.070312 227.945312 55.730469 226.421875 C 54.390625 224.894531 53.722656 223 53.722656 220.734375 L 53.722656 198.488281 C 53.722656 195.890625 53.3125 193.800781 52.488281 192.214844 C 51.664062 190.628906 50.203125 189.054688 48.097656 187.488281 " fill-opacity="1" fill-rule="nonzero"/><g clip-path="url(#8ea3d2ceed)"><path fill="#ff4500" d="M 61.078125 233.511719 C 57.800781 233.511719 55.066406 232.324219 52.722656 229.882812 C 50.402344 227.464844 49.226562 224.386719 49.226562 220.734375 L 49.226562 198.488281 C 49.226562 196.046875 48.488281 193.957031 47.03125 192.277344 C 45.5625 190.582031 43.636719 189.632812 41.296875 189.453125 C 40.109375 189.328125 39.589844 189.03125 39.363281 188.808594 C 39.054688 188.5 38.90625 188.066406 38.90625 187.488281 C 38.90625 186.867188 39.054688 186.414062 39.363281 186.105469 C 39.589844 185.882812 40.109375 185.585938 41.320312 185.457031 C 43.59375 185.277344 45.511719 184.328125 46.996094 182.640625 C 48.476562 180.960938 49.226562 178.871094 49.226562 176.425781 L 49.226562 154.179688 C 49.226562 150.328125 50.625 147.019531 53.386719 144.335938 C 55.433594 142.402344 57.933594 141.460938 61.015625 141.460938 C 61.851562 141.460938 62.472656 141.636719 62.863281 141.984375 C 63.238281 142.3125 63.414062 142.734375 63.414062 143.300781 C 63.414062 143.835938 63.234375 144.246094 62.851562 144.601562 C 62.730469 144.710938 62.261719 145 60.757812 145.144531 C 58.550781 145.371094 56.683594 146.316406 55.203125 147.957031 C 53.71875 149.597656 52.96875 151.710938 52.96875 154.238281 L 52.96875 176.425781 C 52.96875 178.847656 52.519531 180.957031 51.628906 182.695312 C 50.949219 183.980469 49.605469 185.394531 47.644531 186.886719 L 46.84375 187.492188 L 47.648438 188.09375 C 49.648438 189.582031 51.050781 191.085938 51.816406 192.5625 C 52.582031 194.03125 52.96875 196.027344 52.96875 198.488281 L 52.96875 220.734375 C 52.96875 223.179688 53.707031 225.257812 55.164062 226.917969 C 56.628906 228.582031 58.507812 229.542969 60.753906 229.765625 C 62.324219 229.914062 62.71875 230.230469 62.800781 230.324219 L 62.851562 230.375 C 63.234375 230.726562 63.414062 231.140625 63.414062 231.671875 C 63.414062 232.207031 63.234375 232.621094 62.851562 232.972656 C 62.460938 233.332031 61.867188 233.511719 61.078125 233.511719 Z M 61.015625 139.949219 C 57.578125 139.949219 54.65625 141.058594 52.339844 143.246094 C 49.269531 146.230469 47.714844 149.90625 47.714844 154.179688 L 47.714844 176.425781 C 47.714844 178.519531 47.109375 180.226562 45.863281 181.644531 C 44.628906 183.046875 43.097656 183.800781 41.179688 183.953125 C 39.816406 184.101562 38.878906 184.453125 38.296875 185.039062 C 37.699219 185.632812 37.394531 186.457031 37.394531 187.488281 C 37.394531 188.472656 37.699219 189.277344 38.296875 189.875 C 38.878906 190.457031 39.816406 190.8125 41.160156 190.957031 C 43.136719 191.109375 44.675781 191.863281 45.890625 193.265625 C 47.121094 194.679688 47.714844 196.390625 47.714844 198.488281 L 47.714844 220.734375 C 47.714844 224.789062 49.035156 228.222656 51.632812 230.929688 C 54.242188 233.644531 57.421875 235.023438 61.078125 235.023438 C 62.257812 235.023438 63.199219 234.707031 63.875 234.082031 C 64.570312 233.441406 64.921875 232.628906 64.921875 231.671875 C 64.921875 230.726562 64.578125 229.925781 63.898438 229.285156 C 63.378906 228.734375 62.425781 228.40625 60.902344 228.265625 C 59.023438 228.074219 57.519531 227.308594 56.296875 225.921875 C 55.074219 224.527344 54.480469 222.832031 54.480469 220.734375 L 54.480469 198.488281 C 54.480469 195.78125 54.035156 193.554688 53.15625 191.867188 C 52.390625 190.390625 51.105469 188.917969 49.328125 187.484375 C 51.070312 186.058594 52.269531 184.714844 52.96875 183.390625 C 53.972656 181.429688 54.480469 179.089844 54.480469 176.425781 L 54.480469 154.238281 C 54.480469 152.066406 55.082031 150.339844 56.320312 148.96875 C 57.5625 147.59375 59.0625 146.835938 60.90625 146.648438 C 62.378906 146.503906 63.320312 146.210938 63.867188 145.714844 C 64.570312 145.070312 64.921875 144.257812 64.921875 143.300781 C 64.921875 142.296875 64.566406 141.472656 63.863281 140.851562 C 63.1875 140.253906 62.230469 139.949219 61.015625 139.949219 " fill-opacity="1" fill-rule="nonzero"/></g></svg>