<svg xmlns="http://www.w3.org/2000/svg" xmlns:xlink="http://www.w3.org/1999/xlink" width="800" zoomAndPan="magnify" viewBox="0 0 600 374.999991" height="500" preserveAspectRatio="xMidYMid meet" version="1.0"><defs><g/><linearGradient x1="0" gradientTransform="matrix(0.75, 0, 0, 0.75, 0.0000072, 0)" y1="250" x2="799.999967" gradientUnits="userSpaceOnUse" y2="250" id="506252098a"><stop stop-opacity="1" stop-color="rgb(95.298767%, 95.698547%, 96.499634%)" offset="0"/><stop stop-opacity="1" stop-color="rgb(95.445251%, 95.832825%, 96.607971%)" offset="0.0625"/><stop stop-opacity="1" stop-color="rgb(95.739746%, 96.102905%, 96.826172%)" offset="0.125"/><stop stop-opacity="1" stop-color="rgb(96.032715%, 96.37146%, 97.045898%)" offset="0.1875"/><stop stop-opacity="1" stop-color="rgb(96.327209%, 96.640015%, 97.264099%)" offset="0.25"/><stop stop-opacity="1" stop-color="rgb(96.620178%, 96.908569%, 97.483826%)" offset="0.3125"/><stop stop-opacity="1" stop-color="rgb(96.914673%, 97.177124%, 97.702026%)" offset="0.375"/><stop stop-opacity="1" stop-color="rgb(97.207642%, 97.445679%, 97.920227%)" offset="0.4375"/><stop stop-opacity="1" stop-color="rgb(97.502136%, 97.714233%, 98.139954%)" offset="0.5"/><stop stop-opacity="1" stop-color="rgb(97.795105%, 97.982788%, 98.358154%)" offset="0.5625"/><stop stop-opacity="1" stop-color="rgb(98.0896%, 98.252869%, 98.576355%)" offset="0.625"/><stop stop-opacity="1" stop-color="rgb(98.382568%, 98.521423%, 98.796082%)" offset="0.6875"/><stop stop-opacity="1" stop-color="rgb(98.677063%, 98.789978%, 99.014282%)" offset="0.75"/><stop stop-opacity="1" stop-color="rgb(98.970032%, 99.058533%, 99.232483%)" offset="0.8125"/><stop stop-opacity="1" stop-color="rgb(99.264526%, 99.327087%, 99.452209%)" offset="0.875"/><stop stop-opacity="1" stop-color="rgb(99.557495%, 99.595642%, 99.67041%)" offset="0.9375"/><stop stop-opacity="1" stop-color="rgb(99.85199%, 99.864197%, 99.888611%)" offset="1"/></linearGradient><clipPath id="e7030a3bba"><path d="M 535.910156 134.777344 L 566.355469 134.777344 L 566.355469 240.222656 L 535.910156 240.222656 Z M 535.910156 134.777344 " clip-rule="nonzero"/></clipPath><clipPath id="6ac8983e8f"><path d="M 37.5 134.777344 L 68 134.777344 L 68 240.222656 L 37.5 240.222656 Z M 37.5 134.777344 " clip-rule="nonzero"/></clipPath></defs><rect x="-60" fill="url(#506252098a)" width="720" y="-37.499999" height="449.999989"/><g fill="#1a73e8" fill-opacity="1"><g transform="translate(77.937165, 209.73712)"><g><path d="M 21.953125 0.671875 C 16.378906 0.671875 12.039062 -0.867188 8.9375 -3.953125 C 5.84375 -7.035156 4.296875 -11.4375 4.296875 -17.15625 L 4.296875 -39 L 13.3125 -39 L 13.3125 -17.484375 C 13.3125 -10.503906 16.207031 -7.015625 22 -7.015625 C 24.820312 -7.015625 26.972656 -7.859375 28.453125 -9.546875 C 29.941406 -11.242188 30.6875 -13.890625 30.6875 -17.484375 L 30.6875 -39 L 39.609375 -39 L 39.609375 -17.15625 C 39.609375 -11.4375 38.054688 -7.035156 34.953125 -3.953125 C 31.847656 -0.867188 27.515625 0.671875 21.953125 0.671875 Z M 21.953125 0.671875 "/></g></g></g><g fill="#ff4500" fill-opacity="1"><g transform="translate(121.836542, 209.73712)"><g><path d="M 2.890625 -19.15625 L 18.65625 -19.15625 L 18.65625 -12.203125 L 2.890625 -12.203125 Z M 2.890625 -19.15625 "/></g></g></g><g fill="#1a73e8" fill-opacity="1"><g transform="translate(143.346283, 209.73712)"><g><path d="M 23.28125 0.671875 C 19.3125 0.671875 15.71875 -0.191406 12.5 -1.921875 C 9.289062 -3.648438 6.765625 -6.046875 4.921875 -9.109375 C 3.085938 -12.171875 2.171875 -15.632812 2.171875 -19.5 C 2.171875 -23.363281 3.085938 -26.828125 4.921875 -29.890625 C 6.765625 -32.953125 9.289062 -35.34375 12.5 -37.0625 C 15.71875 -38.789062 19.332031 -39.65625 23.34375 -39.65625 C 26.71875 -39.65625 29.769531 -39.0625 32.5 -37.875 C 35.226562 -36.6875 37.519531 -34.976562 39.375 -32.75 L 33.59375 -27.40625 C 30.957031 -30.445312 27.6875 -31.96875 23.78125 -31.96875 C 21.375 -31.96875 19.222656 -31.4375 17.328125 -30.375 C 15.429688 -29.320312 13.953125 -27.847656 12.890625 -25.953125 C 11.835938 -24.054688 11.3125 -21.90625 11.3125 -19.5 C 11.3125 -17.082031 11.835938 -14.925781 12.890625 -13.03125 C 13.953125 -11.132812 15.429688 -9.65625 17.328125 -8.59375 C 19.222656 -7.539062 21.375 -7.015625 23.78125 -7.015625 C 27.6875 -7.015625 30.957031 -8.554688 33.59375 -11.640625 L 39.375 -6.296875 C 37.519531 -4.023438 35.21875 -2.296875 32.46875 -1.109375 C 29.726562 0.078125 26.664062 0.671875 23.28125 0.671875 Z M 23.28125 0.671875 "/></g></g></g><g fill="#1a73e8" fill-opacity="1"><g transform="translate(184.175535, 209.73712)"><g><path d="M 18.265625 0.453125 C 15.109375 0.453125 12.273438 -0.207031 9.765625 -1.53125 C 7.265625 -2.851562 5.304688 -4.679688 3.890625 -7.015625 C 2.484375 -9.359375 1.78125 -12.015625 1.78125 -14.984375 C 1.78125 -17.953125 2.484375 -20.601562 3.890625 -22.9375 C 5.304688 -25.28125 7.265625 -27.109375 9.765625 -28.421875 C 12.273438 -29.742188 15.109375 -30.40625 18.265625 -30.40625 C 21.421875 -30.40625 24.242188 -29.742188 26.734375 -28.421875 C 29.222656 -27.109375 31.171875 -25.28125 32.578125 -22.9375 C 33.992188 -20.601562 34.703125 -17.953125 34.703125 -14.984375 C 34.703125 -12.015625 33.992188 -9.359375 32.578125 -7.015625 C 31.171875 -4.679688 29.222656 -2.851562 26.734375 -1.53125 C 24.242188 -0.207031 21.421875 0.453125 18.265625 0.453125 Z M 18.265625 -6.6875 C 20.492188 -6.6875 22.320312 -7.4375 23.75 -8.9375 C 25.1875 -10.445312 25.90625 -12.460938 25.90625 -14.984375 C 25.90625 -17.503906 25.1875 -19.515625 23.75 -21.015625 C 22.320312 -22.523438 20.492188 -23.28125 18.265625 -23.28125 C 16.035156 -23.28125 14.195312 -22.523438 12.75 -21.015625 C 11.300781 -19.515625 10.578125 -17.503906 10.578125 -14.984375 C 10.578125 -12.460938 11.300781 -10.445312 12.75 -8.9375 C 14.195312 -7.4375 16.035156 -6.6875 18.265625 -6.6875 Z M 18.265625 -6.6875 "/></g></g></g><g fill="#1a73e8" fill-opacity="1"><g transform="translate(220.660065, 209.73712)"><g><path d="M 34.53125 -41.328125 L 34.53125 0 L 26.234375 0 L 26.234375 -3.453125 C 24.078125 -0.847656 20.957031 0.453125 16.875 0.453125 C 14.050781 0.453125 11.5 -0.175781 9.21875 -1.4375 C 6.9375 -2.707031 5.144531 -4.507812 3.84375 -6.84375 C 2.539062 -9.1875 1.890625 -11.898438 1.890625 -14.984375 C 1.890625 -18.066406 2.539062 -20.773438 3.84375 -23.109375 C 5.144531 -25.453125 6.9375 -27.253906 9.21875 -28.515625 C 11.5 -29.773438 14.050781 -30.40625 16.875 -30.40625 C 20.695312 -30.40625 23.6875 -29.203125 25.84375 -26.796875 L 25.84375 -41.328125 Z M 18.375 -6.6875 C 20.570312 -6.6875 22.394531 -7.4375 23.84375 -8.9375 C 25.289062 -10.445312 26.015625 -12.460938 26.015625 -14.984375 C 26.015625 -17.503906 25.289062 -19.515625 23.84375 -21.015625 C 22.394531 -22.523438 20.570312 -23.28125 18.375 -23.28125 C 16.15625 -23.28125 14.316406 -22.523438 12.859375 -21.015625 C 11.410156 -19.515625 10.6875 -17.503906 10.6875 -14.984375 C 10.6875 -12.460938 11.410156 -10.445312 12.859375 -8.9375 C 14.316406 -7.4375 16.15625 -6.6875 18.375 -6.6875 Z M 18.375 -6.6875 "/></g></g></g><g fill="#1a73e8" fill-opacity="1"><g transform="translate(259.205553, 209.73712)"><g><path d="M 33.359375 -14.875 C 33.359375 -14.757812 33.304688 -13.976562 33.203125 -12.53125 L 10.53125 -12.53125 C 10.9375 -10.675781 11.898438 -9.207031 13.421875 -8.125 C 14.941406 -7.050781 16.835938 -6.515625 19.109375 -6.515625 C 20.671875 -6.515625 22.050781 -6.742188 23.25 -7.203125 C 24.457031 -7.671875 25.582031 -8.40625 26.625 -9.40625 L 31.25 -4.40625 C 28.425781 -1.164062 24.304688 0.453125 18.890625 0.453125 C 15.503906 0.453125 12.507812 -0.207031 9.90625 -1.53125 C 7.3125 -2.851562 5.304688 -4.679688 3.890625 -7.015625 C 2.484375 -9.359375 1.78125 -12.015625 1.78125 -14.984375 C 1.78125 -17.921875 2.472656 -20.566406 3.859375 -22.921875 C 5.253906 -25.273438 7.164062 -27.109375 9.59375 -28.421875 C 12.03125 -29.742188 14.753906 -30.40625 17.765625 -30.40625 C 20.703125 -30.40625 23.359375 -29.773438 25.734375 -28.515625 C 28.109375 -27.253906 29.972656 -25.441406 31.328125 -23.078125 C 32.679688 -20.722656 33.359375 -17.988281 33.359375 -14.875 Z M 17.828125 -23.84375 C 15.859375 -23.84375 14.203125 -23.285156 12.859375 -22.171875 C 11.523438 -21.054688 10.710938 -19.535156 10.421875 -17.609375 L 25.171875 -17.609375 C 24.878906 -19.492188 24.0625 -21.003906 22.71875 -22.140625 C 21.382812 -23.273438 19.753906 -23.84375 17.828125 -23.84375 Z M 17.828125 -23.84375 "/></g></g></g><g fill="#1a73e8" fill-opacity="1"><g transform="translate(294.353242, 209.73712)"><g><path d="M 7.296875 -19.546875 C 5.773438 -19.546875 4.492188 -20.066406 3.453125 -21.109375 C 2.410156 -22.148438 1.890625 -23.453125 1.890625 -25.015625 C 1.890625 -26.609375 2.410156 -27.894531 3.453125 -28.875 C 4.492188 -29.863281 5.773438 -30.359375 7.296875 -30.359375 C 8.816406 -30.359375 10.097656 -29.863281 11.140625 -28.875 C 12.179688 -27.894531 12.703125 -26.609375 12.703125 -25.015625 C 12.703125 -23.453125 12.179688 -22.148438 11.140625 -21.109375 C 10.097656 -20.066406 8.816406 -19.546875 7.296875 -19.546875 Z M 7.359375 -10.359375 C 8.910156 -10.359375 10.1875 -9.863281 11.1875 -8.875 C 12.195312 -7.894531 12.703125 -6.609375 12.703125 -5.015625 C 12.703125 -4.273438 12.609375 -3.53125 12.421875 -2.78125 C 12.234375 -2.039062 11.828125 -0.925781 11.203125 0.5625 L 8.015625 8.578125 L 2.5 8.578125 L 4.953125 -0.28125 C 4.023438 -0.644531 3.289062 -1.242188 2.75 -2.078125 C 2.21875 -2.921875 1.953125 -3.898438 1.953125 -5.015625 C 1.953125 -6.609375 2.460938 -7.894531 3.484375 -8.875 C 4.503906 -9.863281 5.796875 -10.359375 7.359375 -10.359375 Z M 7.359375 -10.359375 "/></g></g></g><g fill="#1a73e8" fill-opacity="1"><g transform="translate(308.947065, 209.73712)"><g/></g></g><g fill="#1a73e8" fill-opacity="1"><g transform="translate(324.710608, 209.73712)"><g><path d="M 63.5625 -39 L 50.796875 0 L 41.109375 0 L 32.53125 -26.40625 L 23.671875 0 L 14.03125 0 L 1.21875 -39 L 10.578125 -39 L 19.390625 -11.59375 L 28.578125 -39 L 36.9375 -39 L 45.84375 -11.359375 L 54.921875 -39 Z M 63.5625 -39 "/></g></g></g><g fill="#1a73e8" fill-opacity="1"><g transform="translate(389.491535, 209.73712)"><g><path d="M 33.359375 -14.875 C 33.359375 -14.757812 33.304688 -13.976562 33.203125 -12.53125 L 10.53125 -12.53125 C 10.9375 -10.675781 11.898438 -9.207031 13.421875 -8.125 C 14.941406 -7.050781 16.835938 -6.515625 19.109375 -6.515625 C 20.671875 -6.515625 22.050781 -6.742188 23.25 -7.203125 C 24.457031 -7.671875 25.582031 -8.40625 26.625 -9.40625 L 31.25 -4.40625 C 28.425781 -1.164062 24.304688 0.453125 18.890625 0.453125 C 15.503906 0.453125 12.507812 -0.207031 9.90625 -1.53125 C 7.3125 -2.851562 5.304688 -4.679688 3.890625 -7.015625 C 2.484375 -9.359375 1.78125 -12.015625 1.78125 -14.984375 C 1.78125 -17.921875 2.472656 -20.566406 3.859375 -22.921875 C 5.253906 -25.273438 7.164062 -27.109375 9.59375 -28.421875 C 12.03125 -29.742188 14.753906 -30.40625 17.765625 -30.40625 C 20.703125 -30.40625 23.359375 -29.773438 25.734375 -28.515625 C 28.109375 -27.253906 29.972656 -25.441406 31.328125 -23.078125 C 32.679688 -20.722656 33.359375 -17.988281 33.359375 -14.875 Z M 17.828125 -23.84375 C 15.859375 -23.84375 14.203125 -23.285156 12.859375 -22.171875 C 11.523438 -21.054688 10.710938 -19.535156 10.421875 -17.609375 L 25.171875 -17.609375 C 24.878906 -19.492188 24.0625 -21.003906 22.71875 -22.140625 C 21.382812 -23.273438 19.753906 -23.84375 17.828125 -23.84375 Z M 17.828125 -23.84375 "/></g></g></g><g fill="#1a73e8" fill-opacity="1"><g transform="translate(424.639224, 209.73712)"><g/></g></g><g fill="#1a73e8" fill-opacity="1"><g transform="translate(440.402767, 209.73712)"><g><path d="M 13.640625 -31.75 L 13.640625 -21.453125 L 31.6875 -21.453125 L 31.6875 -14.203125 L 13.640625 -14.203125 L 13.640625 0 L 4.625 0 L 4.625 -39 L 34.09375 -39 L 34.09375 -31.75 Z M 13.640625 -31.75 "/></g></g></g><g fill="#1a73e8" fill-opacity="1"><g transform="translate(475.996066, 209.73712)"><g><path d="M 4.015625 -29.96875 L 12.703125 -29.96875 L 12.703125 0 L 4.015625 0 Z M 8.34375 -34.140625 C 6.75 -34.140625 5.453125 -34.601562 4.453125 -35.53125 C 3.453125 -36.46875 2.953125 -37.625 2.953125 -39 C 2.953125 -40.363281 3.453125 -41.507812 4.453125 -42.4375 C 5.453125 -43.375 6.75 -43.84375 8.34375 -43.84375 C 9.945312 -43.84375 11.25 -43.394531 12.25 -42.5 C 13.25 -41.613281 13.75 -40.5 13.75 -39.15625 C 13.75 -37.707031 13.25 -36.507812 12.25 -35.5625 C 11.25 -34.613281 9.945312 -34.140625 8.34375 -34.140625 Z M 8.34375 -34.140625 "/></g></g></g><g fill="#1a73e8" fill-opacity="1"><g transform="translate(492.762218, 209.73712)"><g><path d="M 23.0625 0 L 16.484375 -9.1875 L 9.6875 0 L 0.21875 0 L 11.75 -15.09375 L 0.609375 -29.96875 L 10.359375 -29.96875 L 16.71875 -21.21875 L 23.234375 -29.96875 L 32.46875 -29.96875 L 21.328125 -15.3125 L 32.921875 0 Z M 23.0625 0 "/></g></g></g><path stroke-linecap="butt" transform="matrix(0.75, 0, 0, 0.75, 224.441023, 219.017153)" fill="none" stroke-linejoin="miter" d="M 0.000511184 5.497963 L 44.411972 5.497963 " stroke="#ff4500" stroke-width="11" stroke-opacity="1" stroke-miterlimit="4"/><path fill="#ff4500" d="M 554.523438 187.492188 C 552.246094 185.757812 550.695312 184.121094 549.875 182.570312 C 548.828125 180.523438 548.304688 178.085938 548.304688 175.261719 L 548.304688 150.734375 C 548.304688 148.136719 547.554688 146.007812 546.050781 144.347656 C 544.546875 142.683594 542.679688 141.738281 540.449219 141.511719 C 539.035156 141.375 538.101562 141.101562 537.644531 140.691406 C 537.054688 140.144531 536.757812 139.460938 536.757812 138.640625 C 536.757812 137.777344 537.054688 137.082031 537.644531 136.558594 C 538.238281 136.035156 539.105469 135.769531 540.242188 135.769531 C 543.839844 135.769531 546.847656 136.910156 549.261719 139.1875 C 552.496094 142.332031 554.113281 146.15625 554.113281 150.664062 L 554.113281 175.261719 C 554.113281 177.765625 554.863281 179.871094 556.367188 181.582031 C 557.871094 183.289062 559.78125 184.234375 562.105469 184.414062 C 563.378906 184.550781 564.269531 184.871094 564.769531 185.371094 C 565.269531 185.875 565.519531 186.578125 565.519531 187.492188 C 565.519531 188.355469 565.269531 189.039062 564.769531 189.539062 C 564.269531 190.042969 563.378906 190.359375 562.105469 190.496094 C 559.738281 190.675781 557.8125 191.621094 556.332031 193.332031 C 554.851562 195.039062 554.113281 197.144531 554.113281 199.652344 L 554.113281 224.246094 C 554.113281 228.527344 552.746094 232.09375 550.011719 234.9375 C 547.277344 237.785156 544 239.207031 540.175781 239.207031 C 539.082031 239.207031 538.238281 238.933594 537.644531 238.386719 C 537.054688 237.839844 536.757812 237.160156 536.757812 236.339844 C 536.757812 235.519531 537.054688 234.835938 537.644531 234.289062 C 538.054688 233.832031 538.992188 233.539062 540.449219 233.402344 C 542.726562 233.171875 544.605469 232.214844 546.085938 230.53125 C 547.566406 228.847656 548.304688 226.75 548.304688 224.246094 L 548.304688 199.652344 C 548.304688 196.78125 548.761719 194.46875 549.671875 192.71875 C 550.582031 190.964844 552.199219 189.222656 554.523438 187.492188 " fill-opacity="1" fill-rule="nonzero"/><g clip-path="url(#e7030a3bba)"><path fill="#ff4500" d="M 540.175781 238.375 C 543.796875 238.375 546.816406 237.058594 549.410156 234.359375 C 551.976562 231.6875 553.277344 228.285156 553.277344 224.246094 L 553.277344 199.652344 C 553.277344 196.949219 554.09375 194.640625 555.703125 192.785156 C 557.324219 190.914062 559.457031 189.863281 562.042969 189.664062 C 563.355469 189.523438 563.929688 189.199219 564.179688 188.949219 C 564.519531 188.609375 564.6875 188.128906 564.6875 187.492188 C 564.6875 186.804688 564.519531 186.304688 564.179688 185.964844 C 563.929688 185.714844 563.355469 185.390625 562.015625 185.246094 C 559.503906 185.046875 557.382812 184 555.738281 182.132812 C 554.105469 180.273438 553.277344 177.964844 553.277344 175.261719 L 553.277344 150.664062 C 553.277344 146.410156 551.730469 142.75 548.679688 139.785156 C 546.414062 137.648438 543.652344 136.605469 540.242188 136.605469 C 539.320312 136.605469 538.632812 136.800781 538.199219 137.183594 C 537.785156 137.550781 537.59375 138.011719 537.59375 138.640625 C 537.59375 139.230469 537.789062 139.6875 538.214844 140.078125 C 538.347656 140.199219 538.863281 140.519531 540.527344 140.679688 C 542.964844 140.929688 545.03125 141.976562 546.667969 143.785156 C 548.308594 145.601562 549.140625 147.9375 549.140625 150.734375 L 549.140625 175.261719 C 549.140625 177.9375 549.636719 180.269531 550.617188 182.191406 C 551.371094 183.613281 552.855469 185.175781 555.027344 186.824219 L 555.910156 187.496094 L 555.019531 188.160156 C 552.8125 189.804688 551.261719 191.46875 550.410156 193.101562 C 549.566406 194.726562 549.140625 196.929688 549.140625 199.652344 L 549.140625 224.246094 C 549.140625 226.949219 548.324219 229.246094 546.710938 231.082031 C 545.09375 232.921875 543.015625 233.984375 540.53125 234.230469 C 538.796875 234.394531 538.359375 234.746094 538.265625 234.847656 L 538.214844 234.902344 C 537.789062 235.292969 537.59375 235.75 537.59375 236.339844 C 537.59375 236.929688 537.789062 237.386719 538.214844 237.773438 C 538.644531 238.171875 539.300781 238.375 540.175781 238.375 Z M 540.242188 134.9375 C 544.042969 134.9375 547.269531 136.164062 549.832031 138.582031 C 553.230469 141.878906 554.945312 145.941406 554.945312 150.664062 L 554.945312 175.261719 C 554.945312 177.578125 555.617188 179.464844 556.992188 181.027344 C 558.359375 182.582031 560.050781 183.417969 562.171875 183.582031 C 563.679688 183.746094 564.714844 184.136719 565.359375 184.78125 C 566.019531 185.441406 566.355469 186.351562 566.355469 187.492188 C 566.355469 188.582031 566.019531 189.46875 565.359375 190.128906 C 564.714844 190.773438 563.679688 191.167969 562.191406 191.324219 C 560.007812 191.492188 558.304688 192.328125 556.960938 193.878906 C 555.605469 195.445312 554.945312 197.332031 554.945312 199.652344 L 554.945312 224.246094 C 554.945312 228.730469 553.488281 232.523438 550.613281 235.515625 C 547.730469 238.519531 544.21875 240.042969 540.175781 240.042969 C 538.871094 240.042969 537.828125 239.691406 537.082031 239 C 536.3125 238.292969 535.921875 237.398438 535.921875 236.339844 C 535.921875 235.292969 536.304688 234.40625 537.054688 233.699219 C 537.628906 233.089844 538.683594 232.726562 540.371094 232.570312 C 542.445312 232.363281 544.109375 231.515625 545.457031 229.980469 C 546.8125 228.4375 547.46875 226.5625 547.46875 224.246094 L 547.46875 199.652344 C 547.46875 196.660156 547.960938 194.195312 548.929688 192.332031 C 549.777344 190.699219 551.199219 189.074219 553.164062 187.484375 C 551.234375 185.914062 549.914062 184.425781 549.140625 182.960938 C 548.027344 180.792969 547.46875 178.203125 547.46875 175.261719 L 547.46875 150.734375 C 547.46875 148.332031 546.804688 146.425781 545.429688 144.90625 C 544.058594 143.386719 542.402344 142.550781 540.363281 142.339844 C 538.738281 142.183594 537.695312 141.855469 537.089844 141.3125 C 536.3125 140.59375 535.921875 139.699219 535.921875 138.640625 C 535.921875 137.53125 536.316406 136.621094 537.09375 135.933594 C 537.84375 135.273438 538.902344 134.9375 540.242188 134.9375 " fill-opacity="1" fill-rule="nonzero"/></g><path fill="#ff4500" d="M 49.335938 187.492188 C 51.609375 185.757812 53.160156 184.121094 53.980469 182.570312 C 55.027344 180.523438 55.550781 178.085938 55.550781 175.261719 L 55.550781 150.734375 C 55.550781 148.136719 56.300781 146.007812 57.804688 144.347656 C 59.308594 142.683594 61.175781 141.738281 63.410156 141.511719 C 64.820312 141.375 65.753906 141.101562 66.210938 140.691406 C 66.800781 140.144531 67.097656 139.460938 67.097656 138.640625 C 67.097656 137.777344 66.800781 137.082031 66.210938 136.558594 C 65.617188 136.035156 64.75 135.769531 63.613281 135.769531 C 60.015625 135.769531 57.007812 136.910156 54.59375 139.1875 C 51.359375 142.332031 49.742188 146.15625 49.742188 150.664062 L 49.742188 175.261719 C 49.742188 177.765625 48.992188 179.871094 47.488281 181.582031 C 45.988281 183.289062 44.074219 184.234375 41.75 184.414062 C 40.476562 184.550781 39.585938 184.871094 39.085938 185.371094 C 38.585938 185.875 38.335938 186.578125 38.335938 187.492188 C 38.335938 188.355469 38.585938 189.039062 39.085938 189.539062 C 39.585938 190.042969 40.476562 190.359375 41.75 190.496094 C 44.121094 190.675781 46.042969 191.621094 47.523438 193.332031 C 49.003906 195.039062 49.742188 197.144531 49.742188 199.652344 L 49.742188 224.246094 C 49.742188 228.527344 51.113281 232.09375 53.84375 234.9375 C 56.578125 237.785156 59.855469 239.207031 63.679688 239.207031 C 64.773438 239.207031 65.617188 238.933594 66.210938 238.386719 C 66.800781 237.839844 67.097656 237.160156 67.097656 236.339844 C 67.097656 235.519531 66.800781 234.835938 66.210938 234.289062 C 65.800781 233.832031 64.863281 233.539062 63.410156 233.402344 C 61.128906 233.171875 59.25 232.214844 57.769531 230.53125 C 56.289062 228.847656 55.550781 226.75 55.550781 224.246094 L 55.550781 199.652344 C 55.550781 196.78125 55.09375 194.46875 54.183594 192.71875 C 53.273438 190.964844 51.65625 189.222656 49.335938 187.492188 " fill-opacity="1" fill-rule="nonzero"/><g clip-path="url(#6ac8983e8f)"><path fill="#ff4500" d="M 63.679688 238.375 C 60.058594 238.375 57.039062 237.058594 54.445312 234.359375 C 51.878906 231.6875 50.578125 228.285156 50.578125 224.246094 L 50.578125 199.652344 C 50.578125 196.949219 49.761719 194.640625 48.152344 192.785156 C 46.53125 190.914062 44.398438 189.863281 41.8125 189.664062 C 40.5 189.523438 39.925781 189.199219 39.675781 188.949219 C 39.335938 188.609375 39.167969 188.128906 39.167969 187.492188 C 39.167969 186.804688 39.335938 186.304688 39.675781 185.964844 C 39.925781 185.714844 40.5 185.390625 41.839844 185.246094 C 44.351562 185.046875 46.472656 184 48.117188 182.132812 C 49.75 180.273438 50.578125 177.964844 50.578125 175.261719 L 50.578125 150.664062 C 50.578125 146.410156 52.125 142.75 55.175781 139.785156 C 57.441406 137.648438 60.203125 136.605469 63.613281 136.605469 C 64.535156 136.605469 65.222656 136.800781 65.65625 137.183594 C 66.070312 137.550781 66.261719 138.011719 66.261719 138.640625 C 66.261719 139.230469 66.066406 139.6875 65.640625 140.078125 C 65.507812 140.199219 64.992188 140.519531 63.328125 140.679688 C 60.890625 140.929688 58.824219 141.976562 57.1875 143.785156 C 55.546875 145.601562 54.71875 147.9375 54.71875 150.734375 L 54.71875 175.261719 C 54.71875 177.9375 54.21875 180.269531 53.238281 182.191406 C 52.484375 183.613281 51 185.175781 48.828125 186.824219 L 47.945312 187.496094 L 48.835938 188.160156 C 51.042969 189.804688 52.59375 191.46875 53.445312 193.101562 C 54.289062 194.726562 54.71875 196.929688 54.71875 199.652344 L 54.71875 224.246094 C 54.71875 226.949219 55.535156 229.246094 57.144531 231.082031 C 58.761719 232.921875 60.839844 233.984375 63.324219 234.230469 C 65.058594 234.394531 65.496094 234.746094 65.589844 234.847656 L 65.640625 234.902344 C 66.066406 235.292969 66.261719 235.75 66.261719 236.339844 C 66.261719 236.929688 66.066406 237.386719 65.640625 237.773438 C 65.214844 238.171875 64.554688 238.375 63.679688 238.375 Z M 63.613281 134.9375 C 59.8125 134.9375 56.585938 136.164062 54.023438 138.582031 C 50.625 141.878906 48.910156 145.941406 48.910156 150.664062 L 48.910156 175.261719 C 48.910156 177.578125 48.238281 179.464844 46.863281 181.027344 C 45.496094 182.582031 43.804688 183.417969 41.683594 183.582031 C 40.175781 183.746094 39.140625 184.136719 38.496094 184.78125 C 37.835938 185.441406 37.5 186.351562 37.5 187.492188 C 37.5 188.582031 37.835938 189.46875 38.496094 190.128906 C 39.140625 190.773438 40.175781 191.167969 41.664062 191.324219 C 43.847656 191.492188 45.550781 192.328125 46.894531 193.878906 C 48.25 195.445312 48.910156 197.332031 48.910156 199.652344 L 48.910156 224.246094 C 48.910156 228.730469 50.367188 232.523438 53.242188 235.515625 C 56.125 238.519531 59.636719 240.042969 63.679688 240.042969 C 64.984375 240.042969 66.027344 239.691406 66.773438 239 C 67.542969 238.292969 67.933594 237.398438 67.933594 236.339844 C 67.933594 235.292969 67.550781 234.40625 66.800781 233.699219 C 66.226562 233.089844 65.171875 232.726562 63.488281 232.570312 C 61.410156 232.363281 59.746094 231.515625 58.398438 229.980469 C 57.042969 228.4375 56.386719 226.5625 56.386719 224.246094 L 56.386719 199.652344 C 56.386719 196.660156 55.894531 194.195312 54.925781 192.332031 C 54.078125 190.699219 52.65625 189.074219 50.691406 187.484375 C 52.621094 185.914062 53.941406 184.425781 54.71875 182.960938 C 55.828125 180.792969 56.386719 178.203125 56.386719 175.261719 L 56.386719 150.734375 C 56.386719 148.332031 57.050781 146.425781 58.425781 144.90625 C 59.796875 143.386719 61.453125 142.550781 63.492188 142.339844 C 65.121094 142.183594 66.160156 141.855469 66.765625 141.3125 C 67.542969 140.59375 67.933594 139.699219 67.933594 138.640625 C 67.933594 137.53125 67.539062 136.621094 66.761719 135.933594 C 66.015625 135.273438 64.953125 134.9375 63.613281 134.9375 " fill-opacity="1" fill-rule="nonzero"/></g></svg>